<?xml version="1.0" standalone="no"?>
<!DOCTYPE svg PUBLIC "-//W3C//DTD SVG 1.1//EN" "http://www.w3.org/Graphics/SVG/1.1/DTD/svg11.dtd" >
<svg xmlns="http://www.w3.org/2000/svg" xmlns:xlink="http://www.w3.org/1999/xlink" version="1.1">
<metadata></metadata>
<defs>
<font id="oxygenregular" horiz-adv-x="1226" >
<font-face units-per-em="2048" ascent="1638" descent="-410" />
<missing-glyph horiz-adv-x="432" />
<glyph horiz-adv-x="0" />
<glyph unicode="&#xd;" horiz-adv-x="319" />
<glyph unicode=" "  horiz-adv-x="432" />
<glyph unicode="&#x09;" horiz-adv-x="432" />
<glyph unicode="&#xa0;" horiz-adv-x="432" />
<glyph unicode="!" horiz-adv-x="585" d="M160 121q0 53 35.5 92t97.5 39t97.5 -39t35.5 -92q0 -54 -35.5 -93.5t-97.5 -39.5t-97.5 39.5t-35.5 93.5zM195 1354v141h196v-141l-63 -920h-66z" />
<glyph unicode="&#x22;" horiz-adv-x="708" d="M139 1509h152l-31 -493h-100zM426 1509h149l-28 -493h-101z" />
<glyph unicode="#" horiz-adv-x="1132" d="M90 410l10 127h185l59 393h-176l8 125h195l82 407h153l-80 -407h236l69 407h130l-66 -407h137l-14 -123h-148l-65 -395h145l-10 -127h-154l-86 -433h-151l84 433h-236l-80 -433h-129l74 433h-172zM422 537h235l80 395h-235z" />
<glyph unicode="$" d="M94 100q78 -46 202.5 -82t283.5 -41v-172h96v172q219 11 344 125t125 330q0 90 -25.5 158.5t-75 116.5t-114.5 79t-152 52l-102 24v508q105 -4 202.5 -31t159.5 -61l52 139q-168 103 -414 109v168h-96v-170q-228 -11 -356 -113.5t-128 -300.5q0 -277 336 -360l148 -37 v-582q-226 11 -435 113zM276 1120q0 232 304 250v-483l-82 18q-111 27 -166.5 78.5t-55.5 136.5zM676 131v557l51 -12q136 -34 188 -93.5t52 -156.5q0 -280 -289 -295h-2z" />
<glyph unicode="%" horiz-adv-x="1875" d="M90 1126q0 169 93.5 277t258.5 108q168 0 261.5 -107t93.5 -278q0 -167 -94.5 -276t-260.5 -109q-167 0 -259.5 108.5t-92.5 276.5zM217 1126q0 -115 60 -195.5t165 -80.5q107 0 167.5 81.5t60.5 194.5q0 115 -61 196t-167 81q-72 0 -124.5 -40.5t-76.5 -102t-24 -134.5z M403 0l928 1495h144l-930 -1495h-142zM1081 369q0 168 94 276.5t259 108.5q168 0 260 -106.5t92 -278.5q0 -168 -93 -275.5t-259 -107.5q-168 0 -260.5 107.5t-92.5 275.5zM1206 369q0 -115 61 -196t167 -81q72 0 124.5 40.5t76.5 102t24 134.5q0 115 -60 195.5t-165 80.5 q-107 0 -167.5 -81.5t-60.5 -194.5z" />
<glyph unicode="&#x26;" horiz-adv-x="1476" d="M104 395q0 154 86.5 259t249.5 186q-47 52 -71.5 82t-51.5 72t-38 83t-11 88q0 150 105.5 237t283.5 87q106 0 192.5 -32.5t142 -104t55.5 -170.5q0 -64 -26 -120t-74.5 -102t-106 -83t-133.5 -72l401 -430q76 78 141 223l121 -90q-65 -140 -158 -252l181 -215 q-104 -37 -156 -51l-137 153q-208 -166 -479 -166q-252 0 -384.5 111t-132.5 307zM281 406q0 -128 92 -201.5t256 -73.5q200 0 356 127q-75 80 -220 233.5t-220 233.5q-126 -65 -195 -140.5t-69 -178.5zM455 1165q0 -68 36.5 -125t112.5 -131q61 31 98 53t77.5 54.5 t59.5 70.5t19 84q0 83 -58 129t-141 46q-93 0 -148.5 -48t-55.5 -133z" />
<glyph unicode="'" horiz-adv-x="391" d="M123 1509h153l-28 -493h-105z" />
<glyph unicode="(" horiz-adv-x="610" d="M125 637q0 432 246 872h147q-227 -416 -227 -868q0 -212 61 -440t168 -418h-147q-112 191 -180 413.5t-68 440.5z" />
<glyph unicode=")" horiz-adv-x="610" d="M92 -217q106 193 168 419.5t62 438.5q0 446 -230 868h150q245 -450 245 -872q0 -218 -68 -438t-181 -416h-146z" />
<glyph unicode="*" horiz-adv-x="1079" d="M88 1083l350 -125l-264 -342l135 -94l228 365l235 -365l135 94l-266 342l352 125l-71 160l-322 -180l29 426h-178l32 -426l-323 180z" />
<glyph unicode="+" horiz-adv-x="1079" d="M100 512h383v-432h135v432h371v133h-368v420h-134v-420h-387v-133z" />
<glyph unicode="," horiz-adv-x="507" d="M135 -293l21 522h211l-125 -522h-107z" />
<glyph unicode="-" horiz-adv-x="684" d="M88 520v144h510v-144h-510z" />
<glyph unicode="." horiz-adv-x="493" d="M127 121q0 -54 35.5 -93.5t97.5 -39.5t97.5 39.5t35.5 93.5q0 53 -35.5 92t-97.5 39t-97.5 -39t-35.5 -92z" />
<glyph unicode="/" horiz-adv-x="950" d="M49 -217l676 1683h147l-677 -1683h-146z" />
<glyph unicode="0" horiz-adv-x="1239" d="M109 752q0 234 55 405t172 270t287 99t286 -99t170 -270t54 -405q0 -134 -17.5 -249t-57 -213t-98 -166.5t-144.5 -107.5t-193 -39q-133 0 -233.5 59t-161 165t-90 244t-29.5 307zM301 758q0 -183 36.5 -323.5t110 -223t175.5 -82.5t175 82.5t108.5 223t35.5 323.5 q0 180 -35.5 317t-108.5 217t-175 80t-175.5 -80t-110 -217t-36.5 -317z" />
<glyph unicode="1" horiz-adv-x="663" d="M51 1343q146 65 273 152h159v-1495h-178v1311q-137 -88 -217 -113z" />
<glyph unicode="2" horiz-adv-x="1114" d="M90 164l516 573q95 105 144.5 191.5t50.5 169.5v10q0 125 -68.5 192.5t-195.5 67.5q-214 0 -334 -123l-60 150q141 131 406 131q203 0 323.5 -111.5t120.5 -296.5v-6q-1 -132 -66 -247.5t-200 -260.5l-422 -450h694l-12 -154h-874z" />
<glyph unicode="3" horiz-adv-x="1101" d="M104 92l58 146q140 -109 332 -109q150 0 239.5 74.5t89.5 208.5q0 78 -26 135t-68.5 90.5t-109.5 53t-135 26t-160 6.5v147q55 0 97.5 2t90.5 9t84 18.5t70 31t56 47t35 67t13 88.5q0 239 -274 239q-199 0 -334 -106l-58 145q148 115 431 115q84 0 160.5 -24.5 t136.5 -70.5t95.5 -117.5t35.5 -158.5q0 -141 -69 -230.5t-194 -127.5q139 -31 219 -131.5t80 -255.5q0 -197 -141 -315t-362 -118q-135 0 -240 35t-152 80z" />
<glyph unicode="4" horiz-adv-x="1210" d="M109 371v153l657 971h186v-979h185l-15 -145h-170v-371h-168v371h-675zM285 516h499v754z" />
<glyph unicode="5" horiz-adv-x="1175" d="M121 115l65 141q150 -117 342 -117q163 0 259 93t96 243q0 134 -80 217.5t-228 83.5q-149 0 -237 -98l-139 18l39 799h766l-17 -164h-608q-2 -72 -7 -235t-7 -236q116 74 243 74q147 0 252 -62t155 -163.5t50 -231.5q0 -226 -146 -363t-397 -137q-126 0 -229 37t-172 101 z" />
<glyph unicode="6" horiz-adv-x="1198" d="M102 471q0 163 60 292.5t217 326.5q38 48 120 148t145 176l63 75h231l-526 -629q112 62 225 62q126 0 233.5 -60t172.5 -169.5t65 -243.5q0 -203 -138.5 -337.5t-363.5 -134.5q-155 0 -271 67.5t-174.5 178.5t-58.5 248zM293 453q0 -89 32.5 -160.5t103.5 -117.5t171 -46 q148 0 233 91t85 226q0 142 -85 233t-233 91q-156 0 -231.5 -88.5t-75.5 -228.5z" />
<glyph unicode="7" horiz-adv-x="1050" d="M100 1341l11 154h868v-135l-537 -1360h-182l514 1341h-674z" />
<glyph unicode="8" horiz-adv-x="1181" d="M102 385q0 144 82.5 249.5t229.5 153.5q-133 47 -205 137.5t-72 223.5q0 177 127 277t330 100t326.5 -99.5t123.5 -277.5q0 -263 -253 -361q135 -48 211.5 -154t76.5 -249q0 -129 -66.5 -223t-175 -139.5t-243.5 -45.5q-136 0 -246 45.5t-178 139.5t-68 223zM279 397 q0 -123 89 -195.5t226 -72.5q136 0 222.5 72t86.5 196q0 119 -83.5 195.5t-225.5 109.5q-143 -33 -229 -110t-86 -195zM315 1151q0 -234 279 -297q274 62 274 297q0 104 -79.5 165.5t-194.5 61.5t-197 -62t-82 -165z" />
<glyph unicode="9" horiz-adv-x="1163" d="M86 1053q0 203 140.5 338t365.5 135q155 0 269.5 -65t171.5 -173.5t57 -245.5q0 -144 -48.5 -259t-169.5 -279q-43 -57 -143.5 -183t-180.5 -223l-79 -98h-219l530 657q-106 -59 -225 -59q-126 0 -232.5 55.5t-171.5 160.5t-65 239zM274 1057q0 -140 84 -224.5t234 -84.5 q157 0 233 87t76 226q0 137 -77.5 224t-225.5 87q-149 0 -236.5 -90.5t-87.5 -224.5z" />
<glyph unicode=":" horiz-adv-x="493" d="M145 -25v234h207v-234h-207zM145 893v231h207v-231h-207z" />
<glyph unicode=";" horiz-adv-x="516" d="M137 -309l58 506h182l-125 -506h-115zM174 893v231h207v-231h-207z" />
<glyph unicode="&#x3c;" horiz-adv-x="1177" d="M102 547v94l959 508v-168l-766 -385l762 -381v-166z" />
<glyph unicode="=" horiz-adv-x="1284" d="M143 741v150h1004v-150h-1004zM145 305v148h1002v-148h-1002z" />
<glyph unicode="&#x3e;" horiz-adv-x="1181" d="M127 61v168l764 369l-762 399v162l956 -520v-94z" />
<glyph unicode="?" horiz-adv-x="864" d="M74 1427q121 97 329 97q163 0 263 -85.5t100 -238.5q0 -77 -22.5 -150t-63 -142.5t-84 -135t-98.5 -157.5t-95 -181h-86q0 64 29.5 147t71.5 163t83.5 158t71 154t29.5 130q-1 95 -61 140.5t-164 45.5q-137 0 -258 -80zM242 121q0 53 35.5 92t97.5 39t97.5 -39t35.5 -92 q0 -54 -35.5 -93.5t-97.5 -39.5t-97.5 39.5t-35.5 93.5z" />
<glyph unicode="@" horiz-adv-x="1787" d="M100 721q0 166 64 315t172.5 256.5t259.5 170.5t319 63q128 0 244.5 -30.5t212.5 -90t167 -142t110 -191t39 -232.5q0 -100 -29.5 -189t-78.5 -152.5t-111 -109.5t-128 -69t-129 -23q-161 0 -184 158q-97 -140 -237 -140q-109 0 -178.5 85.5t-69.5 230.5q0 80 14.5 152.5 t46.5 137.5t78 112.5t114.5 75.5t151.5 28q126 0 301 -62q-12 -60 -35 -168t-35.5 -168t-23 -123.5t-10.5 -91.5q0 -106 88 -106q49 0 106 33.5t106.5 89t82.5 136.5t33 165q0 172 -85 301t-231.5 195.5t-333.5 66.5q-185 0 -341.5 -90t-248.5 -247.5t-92 -346.5 q0 -154 52 -283t142 -214t210 -132t256 -47q283 0 454 139l70 -88q-92 -85 -228 -128.5t-298 -43.5q-165 0 -309.5 57t-250 159t-166.5 252.5t-61 328.5zM676 621q0 -83 36 -131t101 -48q42 0 76.5 22t60 60.5t46 89.5t35.5 110.5t27.5 122.5t24.5 126q1 5 1.5 8t1 7.5 t1.5 8.5q-19 10 -61 16.5t-74 6.5q-60 0 -108.5 -23.5t-79 -62.5t-51 -91.5t-29 -107.5t-8.5 -114z" />
<glyph unicode="A" horiz-adv-x="1308" d="M6 0l557 1495h213l527 -1495h-181l-164 473h-593l-179 -473h-180zM420 610h479l-227 713zM1176 10z" />
<glyph unicode="B" horiz-adv-x="1284" d="M147 0v1495h437q280 0 423.5 -86.5t143.5 -278.5q0 -116 -52.5 -205t-160.5 -124q90 -20 153.5 -80t92 -136t28.5 -159q0 -426 -542 -426h-523zM324 139h313q198 0 296.5 70t98.5 219q0 141 -88.5 215t-255.5 74h-364v-578zM324 850h354q59 0 105 9.5t90.5 34t69 76 t24.5 126.5q0 66 -20 113t-53 74.5t-88 43t-111.5 20.5t-137.5 5h-233v-502z" />
<glyph unicode="C" horiz-adv-x="1288" d="M98 745q0 166 47.5 308.5t136.5 247.5t225.5 165t305.5 60q272 0 438 -137l-63 -136q-67 53 -163 86t-206 33q-131 0 -234.5 -51t-167 -138.5t-96 -199t-32.5 -238.5q0 -98 18 -186t59 -167.5t102.5 -137t154 -91.5t206.5 -34q106 0 199 34.5t160 88.5l57 -146 q-144 -129 -430 -129q-171 0 -309 60t-226 165t-135 244t-47 299zM639 0z" />
<glyph unicode="D" horiz-adv-x="1509" d="M147 0v1495h371q161 0 292 -23t245 -77.5t191 -140.5t121 -216.5t44 -300.5q0 -183 -57 -324.5t-162 -231.5t-249 -135.5t-322 -45.5h-474zM324 156h315q280 0 432 145.5t152 431.5q0 139 -32 244t-89.5 173.5t-144 111.5t-187.5 61t-229 18h-217v-1185zM762 745z" />
<glyph unicode="E" horiz-adv-x="1146" d="M147 0v1495h881l-12 -154h-692v-495h663v-154h-663v-536h735l-17 -156h-895zM1026 10z" />
<glyph unicode="F" horiz-adv-x="1024" d="M147 0v1495h828l-14 -154h-637v-503h616v-144h-616v-694h-177z" />
<glyph unicode="G" horiz-adv-x="1431" d="M100 745q0 -156 45.5 -293.5t132 -244t224 -168.5t309.5 -62q145 0 262 33t248 113v641h-512l-12 -150h370v-395q-55 -34 -152.5 -62t-185.5 -28q-111 0 -201.5 32.5t-152 88.5t-104 134.5t-61.5 168.5t-19 192q0 101 19 192t61.5 171t104 138.5t152 92t201.5 33.5 q103 0 209 -38t172 -91l66 137q-182 146 -461 146q-175 0 -313.5 -62.5t-225 -171t-131.5 -248t-45 -299.5zM717 0z" />
<glyph unicode="H" horiz-adv-x="1464" d="M147 0v1495h177v-647h817v647h178v-1495h-178v696h-817v-696h-177zM733 745z" />
<glyph unicode="I" horiz-adv-x="507" d="M164 0v1495h176v-1495h-176zM459 10z" />
<glyph unicode="J" horiz-adv-x="548" d="M-41 -72h76q53 0 89.5 13t56 32t30 56t12.5 67.5t2 83.5v1315h178v-1253q0 -73 -3 -122.5t-12 -101.5t-26.5 -85t-45.5 -63t-69.5 -47t-98.5 -26.5t-132 -9.5h-34zM274 1489z" />
<glyph unicode="K" d="M145 0v1495h179v-725l637 725h233l-612 -696l682 -799h-224l-600 702l-116 -100v-602h-179zM614 0z" />
<glyph unicode="L" horiz-adv-x="978" d="M147 0v1495h179v-1339h655l-10 -156h-824zM479 0z" />
<glyph unicode="M" horiz-adv-x="1783" d="M150 0v1495h192l557 -1149l553 1149h184v-1495h-166v1176l-473 -994h-200l-482 1000v-1182h-165z" />
<glyph unicode="N" horiz-adv-x="1486" d="M147 0v1495h195l836 -1241v1241h163v-1495h-196l-832 1239v-1239h-166zM743 0z" />
<glyph unicode="O" horiz-adv-x="1656" d="M98 745q0 233 85.5 408.5t251.5 274t394 98.5t394 -98.5t251 -274t85 -408.5q0 -165 -47.5 -305t-137.5 -243.5t-229.5 -161.5t-315.5 -58q-141 0 -259.5 38t-205 106.5t-147 164t-90 211.5t-29.5 248zM289 745q0 -132 32 -242t96 -194.5t169 -132t243 -47.5t243 47.5 t168.5 132t95.5 194.5t32 242q0 288 -138 457.5t-401 169.5q-264 0 -402 -168.5t-138 -458.5zM829 1489z" />
<glyph unicode="P" horiz-adv-x="1157" d="M145 0v1495h484q87 0 161.5 -14t138 -44.5t107.5 -76.5t69 -113.5t25 -152.5q0 -87 -16 -156t-55 -129t-102.5 -99.5t-161.5 -62t-228 -22.5q-66 0 -243 14v-639h-179zM324 780q192 -2 260 -2q71 0 127 10t94 25.5t65.5 40.5t42.5 50t23.5 59t11 62t2.5 65 q0 126 -85.5 186.5t-231.5 60.5h-309v-557z" />
<glyph unicode="Q" horiz-adv-x="1656" d="M98 745q0 233 85.5 408.5t251.5 274t394 98.5t394 -98.5t251 -274t85 -408.5q0 -165 -47.5 -305t-137.5 -243.5t-229.5 -161.5t-315.5 -58q-141 0 -259.5 38t-205 106.5t-147 164t-90 211.5t-29.5 248zM289 745q0 -132 32 -242t96 -194.5t169 -132t243 -47.5t243 47.5 t168.5 132t95.5 194.5t32 242q0 288 -138 457.5t-401 169.5q-264 0 -402 -168.5t-138 -458.5zM829 1489zM942 -16l14 6q15 7 35 15.5t44 16t43 9.5t32 -4q43 -94 138 -216.5t136 -160.5l-116 -119q-49 49 -159.5 194.5t-166.5 258.5z" />
<glyph unicode="R" horiz-adv-x="1337" d="M147 0v1495h474q96 0 167 -5.5t141 -20t117 -42t84 -70t54.5 -105.5t17.5 -146q0 -143 -70.5 -243.5t-211.5 -137.5q-1 0 18.5 -33.5t48 -85t43.5 -84.5l242 -522h-201l-203 465q-80 179 -106 223q-58 -4 -172 -4l-266 8v-692h-177zM324 842l356 -4h9q127 0 201 29 q78 30 108 86t30 149q0 121 -70.5 180t-236.5 59h-397v-499zM641 0z" />
<glyph unicode="S" d="M94 100q81 -49 220.5 -86t316.5 -37q238 0 376 114.5t138 340.5q0 90 -25.5 158.5t-75 116.5t-114.5 79t-152 52l-280 67q-111 27 -166.5 78.5t-55.5 136.5q0 252 363 252q112 0 221 -28.5t178 -65.5l52 139q-79 49 -198 79t-251 30q-256 0 -400.5 -102.5t-144.5 -313.5 q0 -277 336 -360l295 -74q136 -34 188 -93.5t52 -156.5q0 -297 -326 -297q-264 0 -496 115zM614 0z" />
<glyph unicode="T" horiz-adv-x="1064" d="M-2 1341v154h1071v-154h-448v-1341h-177v1341h-446zM532 745z" />
<glyph unicode="U" horiz-adv-x="1384" d="M127 522v973h176v-967q0 -218 90.5 -310.5t294.5 -92.5q203 0 294 93t91 310v967h176v-973q0 -101 -16.5 -181t-56 -149.5t-102.5 -116t-160.5 -72.5t-225.5 -26t-225 26t-160 72.5t-103 116t-56.5 149.5t-16.5 181zM1247 10z" />
<glyph unicode="V" horiz-adv-x="1263" d="M-10 1495h190l453 -1300q297 857 457 1300h186l-549 -1495h-190z" />
<glyph unicode="W" horiz-adv-x="2129" d="M-27 1495h183l430 -1298l391 1245h209l354 -1247l436 1300h183l-514 -1495h-209l-353 1225l-399 -1225h-209zM1067 1489z" />
<glyph unicode="X" horiz-adv-x="1298" d="M10 0l527 780l-494 715h213l403 -602l431 602h190l-500 -715l508 -780h-205l-430 680l-446 -680h-197z" />
<glyph unicode="Y" horiz-adv-x="1241" d="M0 1495h186l424 -717l441 717h192l-557 -881v-614h-176v614zM621 1489z" />
<glyph unicode="Z" horiz-adv-x="1198" d="M90 0v139l832 1202h-797v154h1032v-123l-842 -1216h834l-12 -156h-1047zM600 1489z" />
<glyph unicode="[" horiz-adv-x="677" d="M121 -260v1765h448v-125h-270v-1519h270v-121h-448z" />
<glyph unicode="\" horiz-adv-x="933" d="M82 1466h147l652 -1587h-146z" />
<glyph unicode="]" horiz-adv-x="677" d="M109 -139h272v1519h-272v125h448v-1765h-448v121z" />
<glyph unicode="^" horiz-adv-x="1202" d="M90 627l457 932h104l461 -932h-133l-383 747l-369 -747h-137z" />
<glyph unicode="_" horiz-adv-x="1251" d="M150 -156h952v-137h-952v137z" />
<glyph unicode="`" horiz-adv-x="641" d="M86 1638h250l184 -387h-112zM303 1098z" />
<glyph unicode="a" horiz-adv-x="1044" d="M86 274q0 191 171 276q101 50 325 83q20 4 61 9l1 1h1h2l111 12v125q0 102 -52.5 152.5t-164.5 50.5q-89 0 -181 -20.5t-161 -53.5l-47 131q67 36 170.5 60t214.5 24q86 0 153 -15.5t121.5 -50.5t83.5 -98.5t29 -152.5v-807h-138l-24 121q-129 -146 -342 -146 q-144 0 -239 76.5t-95 222.5zM254 281q0 -88 49.5 -131.5t132.5 -43.5q81 0 175.5 45.5t146.5 116.5v271q-99 -15 -101 -15q-237 -31 -320 -80t-83 -163zM932 10z" />
<glyph unicode="b" horiz-adv-x="1169" d="M119 0h166v164q51 -89 142 -139t202 -50q113 0 203 46.5t146.5 127.5t86 186t29.5 226q0 112 -30 212t-86 179t-145 125.5t-200 46.5q-98 0 -192 -47.5t-154 -146.5v579l-168 -18v-1491zM285 551q0 192 95 312t241 122q67 0 120.5 -26.5t86.5 -69t55 -101t30.5 -116.5 t8.5 -121q0 -64 -9 -123t-31 -117.5t-56 -101.5t-88 -69.5t-122 -26.5q-111 0 -187.5 61t-110 157t-33.5 220z" />
<glyph unicode="c" horiz-adv-x="952" d="M78 549q0 -92 21.5 -177t66 -157t106.5 -125.5t148 -84t186 -30.5q85 0 165 26t132 75l-41 119q-116 -82 -248 -82q-163 0 -264.5 121t-101.5 311t101.5 315t252.5 125q142 0 258 -76l43 119q-46 45 -125.5 70.5t-173.5 25.5q-119 0 -219.5 -47t-166.5 -127 t-102.5 -183.5t-37.5 -217.5zM473 0z" />
<glyph unicode="d" horiz-adv-x="1171" d="M78 561q0 -172 54.5 -303.5t161.5 -207t253 -75.5q110 0 199.5 54.5t138.5 142.5l20 -172h150v1509l-168 -18v-553q-42 86 -138 136t-208 50q-136 0 -242.5 -76t-163.5 -204t-57 -283zM250 557q0 79 17 150.5t51.5 133.5t95.5 99t141 37q85 0 150 -33t104 -92 t58.5 -134.5t19.5 -166.5q0 -187 -84.5 -306.5t-245.5 -119.5q-82 0 -143.5 36.5t-96 99t-51 137t-16.5 159.5zM586 549z" />
<glyph unicode="e" horiz-adv-x="1083" d="M78 551q0 -265 135 -420.5t369 -155.5q254 0 405 131l-51 123q-162 -110 -348 -110q-148 0 -243 108.5t-95 290.5h751q0 9 1.5 38.5t1.5 37.5q0 243 -119.5 386.5t-323.5 143.5q-215 -6 -349 -166t-134 -407zM256 635q13 161 96.5 256.5t208.5 95.5q127 0 204 -91 t77 -261h-586zM977 10z" />
<glyph unicode="f" horiz-adv-x="638" d="M39 981v117h162v32q2 124 20 201t61.5 123.5t107.5 64t167 17.5h74l20 -127h-94q-53 0 -86.5 -10t-54.5 -27t-31 -54.5t-13 -77.5t-3 -110v-32h247v-117h-247v-981h-168v981h-162z" />
<glyph unicode="g" horiz-adv-x="1163" d="M80 545q0 119 29 222t86.5 183.5t152 127t215.5 46.5q203 0 332 -174v148h162v-1018q0 -70 -3.5 -122.5t-17 -116.5t-36.5 -110.5t-64.5 -92.5t-99 -75t-142.5 -47t-192 -18h-178l-23 152h205q73 0 129.5 10t97 27.5t68.5 47t45.5 62t27 81t12.5 95t3 111.5v96 q-60 -87 -139 -133.5t-199 -46.5q-94 0 -173 32.5t-133 86.5t-92 125t-55.5 147.5t-17.5 153.5zM252 555q0 -73 19.5 -144t57 -132t101.5 -98.5t145 -37.5q85 0 149 30t100 83t53.5 118t17.5 142v82q0 81 -18 148.5t-55 121t-99 83.5t-145 30q-68 0 -124 -26t-93 -69 t-62 -99t-36 -114.5t-11 -117.5zM584 1098z" />
<glyph unicode="h" horiz-adv-x="1110" d="M115 0h168v748q22 85 118.5 159t216.5 74q69 0 113 -21t68 -69.5t32.5 -112t8.5 -162.5v-616h168v664q0 222 -83 341t-251 119q-248 0 -391 -176v561l-168 -18v-1491zM555 549z" />
<glyph unicode="i" horiz-adv-x="464" d="M160 0v1098h168v-1098h-168zM160 1298v197h168v-197h-168z" />
<glyph unicode="j" horiz-adv-x="444" d="M-78 -350h53q30 0 54 2.5t43 6.5t32.5 13.5t23.5 18t16 25t10 30t5.5 38t2 43.5t0.5 52v1219h168v-1237q0 -105 -13.5 -170.5t-50.5 -111t-101 -63.5t-167 -18h-53zM162 1298v197h168v-197h-168z" />
<glyph unicode="k" horiz-adv-x="1005" d="M115 0v1491l168 18v-876l487 465h227l-469 -457l502 -641h-215l-414 563l-118 -102v-461h-168zM498 0z" />
<glyph unicode="l" horiz-adv-x="548" d="M143 469v1022l168 18v-1079q0 -69 1 -107.5t5 -79.5t11.5 -60.5t21 -37t33.5 -23t49 -5.5q13 0 90 6l10 -131q-68 -12 -112 -12q-58 0 -100 9t-72.5 22.5t-50 47t-30.5 63.5t-16 92t-6.5 112t-1.5 143zM553 1098z" />
<glyph unicode="m" horiz-adv-x="1771" d="M111 1098q0 -9 2 -117.5t2 -161.5v-819h168v750q30 91 123.5 160t214.5 69q49 0 85 -17.5t58.5 -48.5t36.5 -78.5t19 -101.5t5 -125v-608h168v731q39 112 123 180t187 68q31 0 56 -6t44 -16t33.5 -28.5t24.5 -37t17.5 -47.5t11.5 -55t6 -65t2.5 -71.5t0.5 -79.5v-573h168 v696q0 428 -338 428q-247 0 -379 -202q-37 107 -113.5 154.5t-195.5 47.5q-107 0 -204 -48t-167 -142l-14 164h-145z" />
<glyph unicode="n" horiz-adv-x="1110" d="M111 1098h145l14 -162q64 87 170.5 137.5t221.5 50.5q179 0 262.5 -116.5t83.5 -350.5v-657h-168v551q0 70 -1.5 114.5t-6 95t-13.5 80.5t-24.5 60t-38.5 45.5t-55.5 25t-75.5 9.5q-66 0 -127 -22t-103.5 -57t-72 -74.5t-39.5 -77.5v-750h-168v831zM555 0z" />
<glyph unicode="o" horiz-adv-x="1177" d="M78 547q0 118 35 222.5t100 183.5t164.5 125t220.5 46q123 0 220 -45.5t158.5 -124.5t93.5 -182t32 -223q0 -115 -33.5 -218t-96 -182.5t-160.5 -126.5t-218 -47q-121 0 -220 45t-163 123t-98.5 181.5t-34.5 222.5zM250 545q0 -85 21 -161t62.5 -137.5t109.5 -97.5 t155 -36q86 0 151.5 36t103.5 98t56.5 137.5t18.5 162.5q0 91 -18 167t-55.5 138.5t-104 97.5t-156.5 35q-85 0 -152.5 -37t-108.5 -99.5t-62 -140t-21 -163.5zM590 1098z" />
<glyph unicode="p" horiz-adv-x="1165" d="M123 -459v1557h158l10 -148q129 174 340 174q95 0 172 -31t130 -84.5t88.5 -128t52 -160.5t16.5 -183q0 -150 -54 -277t-160 -206t-245 -79q-108 0 -196.5 46t-143.5 139v-596zM289 549q0 -92 17.5 -167.5t53.5 -135.5t98.5 -93.5t145.5 -33.5q82 0 145 38.5t98.5 102.5 t53 137t17.5 152t-17.5 152.5t-53 137.5t-98.5 103t-145 39q-83 0 -145.5 -33.5t-98.5 -94t-53.5 -136.5t-17.5 -168z" />
<glyph unicode="q" horiz-adv-x="1171" d="M78 539q0 -112 29.5 -212.5t86 -179.5t145.5 -125.5t200 -46.5q114 0 202.5 51.5t141.5 143.5v-629l168 21v1536h-164v-160q-121 186 -336 186q-117 0 -209 -46.5t-149 -127.5t-86 -185.5t-29 -225.5zM250 551q0 79 15.5 150.5t49 135.5t96 102t146.5 38t148.5 -33.5 t103.5 -93t58.5 -135t19.5 -164.5q0 -90 -19 -165.5t-57.5 -135.5t-102.5 -93.5t-149 -33.5q-68 0 -122.5 25t-88.5 66t-57 98t-32 115.5t-9 123.5z" />
<glyph unicode="r" horiz-adv-x="653" d="M121 1098q0 -42 1 -125.5t1 -126.5v-846h168v643q0 130 80 215.5t227 85.5h41l-12 154h-31q-216 0 -322 -191l-12 191h-141zM330 0z" />
<glyph unicode="s" horiz-adv-x="935" d="M100 815q2 -108 66 -184t219 -119l145 -41q166 -47 166 -170v-10q-7 -85 -63.5 -130.5t-151.5 -45.5h-16q-98 0 -180 30t-131 62l-43 -129q55 -41 159.5 -72t221.5 -31q160 0 259 84t103 236v4q0 133 -69 210.5t-207 113.5l-152 41q-85 22 -121.5 59.5t-36.5 91.5 q0 83 59 129.5t152 46.5q142 0 281 -59l39 121q-139 71 -332 71q-89 -1 -160.5 -27.5t-115.5 -70.5t-67.5 -98t-23.5 -113zM467 0z" />
<glyph unicode="t" horiz-adv-x="690" d="M23 981l14 117h153l43 354l125 10v-364h291v-117h-291v-614q0 -155 29.5 -201.5t128.5 -46.5q7 0 137 10l15 -135q-175 -14 -191 -14q-57 0 -99.5 9t-73.5 24t-51.5 45t-33 62t-19 86.5t-8.5 106t-2 131.5v537h-167zM362 549z" />
<glyph unicode="u" horiz-adv-x="1097" d="M109 367v731h167v-733q0 -72 20 -122.5t58.5 -78t86 -39.5t110.5 -12q62 0 108.5 12.5t84.5 40t57.5 78t19.5 121.5v733h168v-731q0 -105 -35.5 -182.5t-97.5 -122.5t-138.5 -66t-166.5 -21q-72 0 -135 13t-120 42.5t-98 74t-65 111.5t-24 151zM989 10z" />
<glyph unicode="v" horiz-adv-x="1034" d="M0 1098h178l346 -914l328 914h178l-428 -1098h-170z" />
<glyph unicode="w" horiz-adv-x="1617" d="M14 1098h174l244 -875l291 875h197l278 -871l236 871h170l-328 -1098h-166l-293 928l-305 -928h-170zM811 1098z" />
<glyph unicode="x" horiz-adv-x="1040" d="M25 0l401 555l-391 543h192l297 -416l299 416h195l-393 -545l393 -553h-182l-310 438l-309 -438h-192z" />
<glyph unicode="y" horiz-adv-x="1011" d="M4 1098l426 -1075q-31 -92 -51.5 -145.5t-47 -100.5t-48.5 -68t-59.5 -36.5t-76 -19t-102.5 -3.5h-29l21 -152h51q76 0 138.5 14.5t111 45t85.5 67.5t68.5 92.5t54.5 108.5t48 127l399 1145h-178q-203 -630 -289 -891l-346 891h-176zM510 1098z" />
<glyph unicode="z" horiz-adv-x="860" d="M80 965h530l-524 -826v-139h737v135h-551l531 830v133h-723v-133zM436 1098z" />
<glyph unicode="{" horiz-adv-x="688" d="M88 614v150h62q29 0 50.5 11t34 33.5t21 45.5t11.5 59.5t4 62t1 66.5v283q0 156 72 223.5t234 67.5v-137q-27 0 -47 -2t-36 -10t-26 -15.5t-17.5 -26t-11 -33t-5.5 -45.5t-2.5 -55t-0.5 -69v-236q0 -92 -32 -175.5t-113 -123.5q81 -40 113 -123.5t32 -175.5v-233 q0 -45 0.5 -69t2.5 -55t5.5 -45.5t11 -33t17.5 -26t26 -15.5t36 -10t47 -2v-138q-162 0 -234 67.5t-72 223.5v283q0 41 -1 66.5t-4 62t-11.5 59.5t-21 45.5t-34 33.5t-50.5 11h-62z" />
<glyph unicode="|" horiz-adv-x="468" d="M160 -303v1907h149v-1907h-149z" />
<glyph unicode="}" horiz-adv-x="698" d="M119 -100q27 0 47 2.5t36 10t26.5 15t17.5 25.5t11 33t6 45.5t2.5 55t0.5 69.5v233q0 92 32.5 175.5t113.5 123.5q-81 40 -113.5 123.5t-32.5 175.5v236q0 45 -0.5 69.5t-2.5 55t-6 45.5t-11 33t-17.5 25.5t-26.5 15t-36 10t-47 2.5v137q162 0 234.5 -67.5t72.5 -223.5 v-283q0 -47 1.5 -79.5t9 -73t20 -65.5t36.5 -42.5t58 -17.5h59v-150h-59q-34 0 -58 -17.5t-36.5 -42.5t-20 -65.5t-9 -73t-1.5 -79.5v-283q0 -156 -72.5 -223.5t-234.5 -67.5v138z" />
<glyph unicode="~" horiz-adv-x="1339" d="M137 473q22 121 98.5 204t198.5 83q53 0 127.5 -27t136.5 -59t125 -59t95 -27q65 0 113 56t67 134l110 -41q-26 -136 -99.5 -215.5t-193.5 -79.5q-52 0 -144.5 43t-186 86t-148.5 43q-77 0 -128.5 -58t-67.5 -140z" />
<glyph unicode="&#xa2;" horiz-adv-x="1079" d="M102 748q0 -220 121.5 -383t325.5 -189v-170h88v168q140 6 293 90l-41 107q-134 -64 -252 -64v879q114 -3 250 -74l43 119q-146 89 -293 92v180h-88v-186q-132 -20 -234 -100.5t-157 -202.5t-56 -266zM272 745q0 159 73.5 284t203.5 149v-863q-88 17 -152.5 82.5 t-94.5 155.5t-30 192z" />
<glyph unicode="&#xa3;" horiz-adv-x="1126" d="M102 707v143h174v86q0 73 4 130.5t15.5 121t31.5 111t53.5 92t79 73t111 45.5t146.5 17q227 0 352 -176l-94 -109q-57 67 -117 99t-141 32q-264 0 -264 -364v-158h399v-143h-399v-177q0 -271 -105 -378q83 10 88 10h615l-13 -162h-903l-22 137q96 51 129.5 127t33.5 203 v240h-174z" />
<glyph unicode="&#xa5;" horiz-adv-x="1128" d="M35 1495h178l352 -621l361 621h170l-430 -727h348v-123h-375v-192h379v-123h-379v-330h-152v330h-391v123h391v192h-387v123h351z" />
<glyph unicode="&#xa8;" horiz-adv-x="768" d="M119 1253v213h153v-213h-153zM391 1098zM508 1253v213h156v-213h-156z" />
<glyph unicode="&#xa9;" horiz-adv-x="1839" d="M117 780q0 156 43.5 289t118.5 227t174.5 160t212 97.5t231.5 31.5q126 0 243.5 -32t219.5 -98t178 -160t120 -226.5t44 -288.5q0 -157 -43.5 -290t-119 -227.5t-177 -160.5t-218.5 -97.5t-243 -31.5q-119 0 -231.5 31.5t-213 98t-176 160t-119.5 227t-44 290.5zM229 782 q0 -148 45 -277.5t128.5 -227t212 -153.5t286.5 -56q132 0 244 36.5t192.5 101t137.5 153.5t84.5 195t27.5 224q0 147 -45 276t-129.5 227t-217.5 155t-298 57q-156 0 -284 -57t-211 -154.5t-128 -226t-45 -273.5zM434 784q0 225 134.5 370.5t351.5 145.5q178 0 307 -90 l-60 -96q-45 32 -116 50t-142 18q-85 0 -151 -32t-106.5 -87t-61.5 -125t-21 -150q0 -178 91.5 -289.5t269.5 -111.5q68 0 144 21t118 51l39 -107q-55 -35 -143 -58.5t-179 -23.5q-207 0 -341 145.5t-134 368.5z" />
<glyph unicode="&#xab;" horiz-adv-x="980" d="M119 584l243 397h166l-258 -397l250 -402h-164zM463 584l262 397h139l-231 -397l225 -402h-135z" />
<glyph unicode="&#xad;" horiz-adv-x="684" d="M88 520v144h510v-144h-510z" />
<glyph unicode="&#xae;" horiz-adv-x="1822" d="M117 780q0 156 43.5 289t118.5 227t174.5 160t212 97.5t231.5 31.5q126 0 243.5 -32t219.5 -98t178 -160t120 -226.5t44 -288.5q0 -157 -43.5 -290t-119 -227.5t-177 -160.5t-218.5 -97.5t-243 -31.5q-119 0 -231.5 31.5t-213 98t-176 160t-119.5 227t-44 290.5zM229 782 q0 -148 45 -277.5t128.5 -227t212 -153.5t286.5 -56q132 0 244 36.5t192.5 101t137.5 153.5t84.5 195t27.5 224q0 147 -45 276t-129.5 227t-217.5 155t-298 57q-156 0 -284 -57t-211 -154.5t-128 -226t-45 -273.5zM598 301v977h258q444 0 444 -270q0 -107 -61 -181t-199 -92 q33 -26 65 -69.5t56.5 -86.5t71.5 -127t88 -151h-150l-124 223q-32 57 -48.5 85.5t-40 59t-45.5 48.5h-182v-416h-133zM731 844h125q148 0 216.5 32.5t68.5 122.5q0 94 -63 122t-230 28h-117v-305z" />
<glyph unicode="&#xb4;" horiz-adv-x="638" d="M127 1249l186 389h254l-325 -389h-115zM348 1098z" />
<glyph unicode="&#xb8;" horiz-adv-x="595" d="M115 -403l8 92q98 -27 133 -27q100 0 100 78q0 80 -98 80q-1 0 -5.5 -0.5t-12 -1t-13.5 -0.5l-28 -2l26 200h86l-12 -112h6q75 0 125.5 -40.5t50.5 -119.5q0 -83 -59 -126.5t-154 -43.5q-51 0 -153 23zM299 0z" />
<glyph unicode="&#xbb;" horiz-adv-x="1005" d="M125 182l231 404l-227 395h137l262 -395l-266 -404h-137zM492 182l251 404l-241 395h157l236 -395l-242 -404h-161z" />
<glyph unicode="&#x2c6;" horiz-adv-x="798" d="M109 1251l186 387h213l186 -387h-133l-162 273l-159 -273h-131zM401 1098z" />
<glyph unicode="&#x2da;" horiz-adv-x="632" d="M125 1442q0 -83 58 -134t139 -51q77 0 134.5 51t57.5 134t-58 139.5t-137 56.5q-78 0 -136 -55t-58 -141zM221 1442q0 45 30 79.5t68 34.5q41 0 69 -34t28 -80q0 -45 -29.5 -79t-67.5 -34q-45 0 -71.5 31t-26.5 82zM319 1098z" />
<glyph unicode="&#x2dc;" horiz-adv-x="884" d="M115 1290q0 110 45 164.5t127 54.5q55 0 119.5 -23.5t112.5 -47t61 -23.5h2q19 1 30 17t13.5 32.5t3.5 44.5h108q0 -219 -147 -219q-46 0 -160 49.5t-151 49.5h-3q-24 0 -38.5 -28t-16.5 -71h-106zM426 1098z" />
<glyph unicode="&#x400;" horiz-adv-x="1095" d="M147 0v1495h881l-12 -154h-692v-495h663v-154h-663v-536h735l-17 -156h-895zM377 2015h250l184 -387h-113z" />
<glyph unicode="&#x401;" horiz-adv-x="1095" d="M147 0v1495h881l-12 -154h-692v-495h663v-154h-663v-536h735l-17 -156h-895zM322 1626v213h153v-213h-153zM711 1626v213h155v-213h-155z" />
<glyph unicode="&#x402;" horiz-adv-x="1024" d="M-23 1341v154h1072v-154h-449v-1341h-176v1341h-447zM512 745z" />
<glyph unicode="&#x403;" horiz-adv-x="1007" d="M147 0v1495h857v-152h-680v-1343h-177z" />
<glyph unicode="&#x404;" horiz-adv-x="1323" d="M72 758q0 128 28.5 242.5t87 211t142 166.5t199 109t253.5 39q291 0 437 -131l-58 -146q-67 54 -162.5 88.5t-201.5 34.5q-108 0 -195.5 -30t-147.5 -81t-102 -122.5t-63 -151t-27 -170.5h692v-153h-690q11 -113 49 -208.5t101.5 -169t158.5 -115.5t211 -42 q109 0 207.5 34t167.5 85l66 -135q-165 -136 -449 -136q-169 0 -304 59.5t-221.5 165.5t-132.5 247.5t-46 308.5z" />
<glyph unicode="&#x405;" horiz-adv-x="1239" d="M94 100q81 -49 220.5 -86t316.5 -37q238 0 376 114.5t138 340.5q0 90 -25.5 158.5t-75 116.5t-114.5 79t-152 52l-280 67q-111 27 -166.5 78.5t-55.5 136.5q0 252 363 252q112 0 221 -28.5t178 -65.5l52 139q-79 49 -198 79t-251 30q-256 0 -400.5 -102.5t-144.5 -313.5 q0 -277 336 -360l295 -74q136 -34 188 -93.5t52 -156.5q0 -297 -326 -297q-264 0 -496 115zM614 0z" />
<glyph unicode="&#x406;" horiz-adv-x="489" d="M156 0v1497h176v-1497h-176z" />
<glyph unicode="&#x407;" horiz-adv-x="489" d="M-27 1606v213h154v-213h-154zM156 0v1497h176v-1497h-176zM362 1606v213h156v-213h-156z" />
<glyph unicode="&#x408;" horiz-adv-x="548" d="M-41 -72h76q53 0 89.5 13t56 32t30 56t12.5 67.5t2 83.5v1315h178v-1253q0 -73 -3 -122.5t-12 -101.5t-26.5 -85t-45.5 -63t-69.5 -47t-98.5 -26.5t-132 -9.5h-34zM274 1489z" />
<glyph unicode="&#x409;" horiz-adv-x="1824" d="M43 -27v158h47q53 0 89 13t56 33t30.5 56t13 68t2.5 84v1110h737v-625h260q106 0 190 -25t146.5 -77.5t96.5 -138t34 -201.5q0 -212 -124 -320t-343 -108h-436v1341h-383v-909q0 -73 -3 -123t-12 -102t-26.5 -85.5t-45.5 -64t-69 -47.5t-98.5 -27t-132.5 -10h-29z M1018 156h260q128 0 206.5 72.5t78.5 201.5q0 131 -78.5 209t-206.5 78h-260v-561z" />
<glyph unicode="&#x40a;" horiz-adv-x="1679" d="M147 0v1495h177v-625h426v625h176v-625h219q106 0 190 -25t146.5 -77.5t96.5 -138t34 -201.5q0 -212 -124 -320t-343 -108h-395v717h-426v-717h-177zM926 160h219q128 0 206.5 70.5t78.5 199.5q0 131 -78.5 209t-206.5 78h-219v-557z" />
<glyph unicode="&#x40b;" horiz-adv-x="1024" d="M-23 1341v154h1072v-154h-449v-1341h-176v1341h-447zM512 745z" />
<glyph unicode="&#x40c;" d="M145 0v1495h179v-725l637 725h233l-612 -696l682 -799h-224l-600 702l-116 -100v-602h-179zM647 1626l187 389h253l-325 -389h-115zM868 1475z" />
<glyph unicode="&#x40e;" horiz-adv-x="1210" d="M0 1495h201l436 -858l379 858h196l-673 -1495h-197l186 467zM354 1884h117q0 -69 37 -105t96 -36t97 36t38 105h119q0 -122 -76 -190t-178 -68q-100 0 -175 68t-75 190zM606 1425z" />
<glyph unicode="&#x40f;" horiz-adv-x="1462" d="M147 0v1495h177v-1341h815v1341h178v-1495h-1170z" />
<glyph unicode="&#x410;" horiz-adv-x="1300" d="M6 0l557 1495h213l527 -1495h-181l-164 473h-593l-179 -473h-180zM420 610h479l-227 713zM1176 10z" />
<glyph unicode="&#x411;" horiz-adv-x="1189" d="M147 0v1495h885v-154h-708v-471h315q218 0 342.5 -108.5t124.5 -335.5q0 -212 -123.5 -319t-343.5 -107h-492zM324 156h315q138 0 211.5 70t73.5 202q0 135 -73.5 212t-211.5 77h-315v-561z" />
<glyph unicode="&#x412;" horiz-adv-x="1251" d="M147 0v1495h408q280 0 423.5 -86.5t143.5 -278.5q0 -116 -52.5 -205t-160.5 -124q90 -20 154 -80t92.5 -136t28.5 -159q0 -426 -543 -426h-494zM324 141h284q198 0 297 69.5t99 217.5q0 140 -88 210.5t-257 70.5h-335v-568zM324 846h315q299 0 299 250q0 66 -20 112.5 t-53 74t-88.5 43t-111.5 20t-137 4.5h-204v-504z" />
<glyph unicode="&#x413;" horiz-adv-x="1007" d="M145 0v1495h873l-14 -154h-680v-1341h-179z" />
<glyph unicode="&#x414;" horiz-adv-x="1386" d="M14 152h156l352 1343h672v-1343h115v-416h-176v264h-943v-264h-176v416zM367 152h649v1202h-348z" />
<glyph unicode="&#x415;" horiz-adv-x="1138" d="M147 0v1495h881l-12 -154h-692v-495h663v-154h-663v-536h735l-17 -156h-895z" />
<glyph unicode="&#x416;" horiz-adv-x="1744" d="M-43 0l590 823l-512 674h211l540 -709v709h177v-709l536 709h213l-502 -663l580 -834h-221l-494 725l-112 -147v-578h-177v578l-104 139l-504 -717h-221z" />
<glyph unicode="&#x417;" horiz-adv-x="1146" d="M86 102l61 144q69 -50 172.5 -83.5t212.5 -33.5q72 0 133.5 16t111 47.5t78 85.5t28.5 125q0 54 -19.5 102t-59 87.5t-107.5 62.5t-158 23h-117v160h127q148 0 223.5 77.5t75.5 182.5v14q-6 122 -88.5 191t-202.5 69q-92 0 -194.5 -30t-174.5 -72l-65 133 q159 121 444 121q90 0 166.5 -25t128.5 -65.5t89 -92t54 -104t17 -102.5q0 -130 -69.5 -233.5t-168.5 -133.5q109 -26 192 -130t83 -237q0 -196 -134.5 -310t-389.5 -114q-270 0 -449 125z" />
<glyph unicode="&#x418;" horiz-adv-x="1488" d="M147 0v1497h162v-1237q158 240 455.5 674t384.5 563h192v-1497h-159v1231l-92 -144l-744 -1087h-199z" />
<glyph unicode="&#x419;" horiz-adv-x="1488" d="M147 0v1497h162v-1237q158 240 455.5 674t384.5 563h192v-1497h-159v1231l-92 -144l-744 -1087h-199zM494 1884h116q0 -69 37 -105t96 -36t97.5 36t38.5 105h118q0 -122 -76 -190t-178 -68q-100 0 -174.5 68t-74.5 190zM745 1425z" />
<glyph unicode="&#x41a;" d="M145 0v1495h179v-725l637 725h233l-612 -696l682 -799h-224l-600 702l-116 -100v-602h-179zM614 0z" />
<glyph unicode="&#x41b;" horiz-adv-x="1222" d="M27 0l374 1495h674v-1495h-176v1341h-346l-340 -1341h-186z" />
<glyph unicode="&#x41c;" horiz-adv-x="1783" d="M150 0v1495h192l557 -1149l553 1149h184v-1495h-166v1176l-473 -994h-200l-482 1000v-1182h-165z" />
<glyph unicode="&#x41d;" horiz-adv-x="1464" d="M147 0v1495h177v-647h817v647h178v-1495h-178v696h-817v-696h-177zM733 745z" />
<glyph unicode="&#x41e;" horiz-adv-x="1660" d="M98 745q0 233 85.5 408.5t251.5 274t394 98.5t394 -98.5t251 -274t85 -408.5q0 -165 -47.5 -305t-137.5 -243.5t-229.5 -161.5t-315.5 -58q-141 0 -259.5 38t-205 106.5t-147 164t-90 211.5t-29.5 248zM289 745q0 -132 32 -242t96 -194.5t169 -132t243 -47.5t243 47.5 t168.5 132t95.5 194.5t32 242q0 288 -138 457.5t-401 169.5q-264 0 -402 -168.5t-138 -458.5zM829 1489z" />
<glyph unicode="&#x41f;" horiz-adv-x="1462" d="M147 0v1495h1170v-1495h-178v1341h-815v-1341h-177z" />
<glyph unicode="&#x420;" horiz-adv-x="1138" d="M147 0v1495h494q220 0 344.5 -107.5t124.5 -318.5q0 -115 -34 -201.5t-97.5 -138.5t-147.5 -77t-190 -25h-317v-627h-177zM324 778h321q140 0 212.5 77t72.5 212q0 132 -73.5 203t-211.5 71h-321v-563z" />
<glyph unicode="&#x421;" horiz-adv-x="1282" d="M98 745q0 166 47.5 308.5t136.5 247.5t225.5 165t305.5 60q272 0 438 -137l-63 -136q-67 53 -163 86t-206 33q-131 0 -234.5 -51t-167 -138.5t-96 -199t-32.5 -238.5q0 -98 18 -186t59 -167.5t102.5 -137t154 -91.5t206.5 -34q106 0 199 34.5t160 88.5l57 -146 q-144 -129 -430 -129q-171 0 -309 60t-226 165t-135 244t-47 299zM639 0z" />
<glyph unicode="&#x422;" horiz-adv-x="1024" d="M-2 1341v154h1071v-154h-448v-1341h-177v1341h-446zM532 745z" />
<glyph unicode="&#x423;" horiz-adv-x="1210" d="M0 1495h201l436 -858l379 858h196l-673 -1495h-197l186 467z" />
<glyph unicode="&#x424;" horiz-adv-x="1726" d="M100 745q0 266 175.5 427.5t498.5 189.5v133h164v-131q324 -22 506 -182t182 -437t-182 -436.5t-506 -181.5v-127h-164v127q-323 28 -498.5 190t-175.5 428zM291 745q0 -197 119.5 -315.5t363.5 -144.5v919q-244 -26 -363.5 -144t-119.5 -315zM938 285q253 24 376.5 143 t123.5 317t-123.5 317.5t-376.5 143.5v-921z" />
<glyph unicode="&#x425;" horiz-adv-x="1298" d="M10 0l527 780l-494 715h213l403 -602l431 602h190l-500 -715l508 -780h-205l-430 680l-446 -680h-197z" />
<glyph unicode="&#x426;" horiz-adv-x="1486" d="M147 0v1495h177v-1339h815v1339h178v-1339h115v-420h-175v264h-1110z" />
<glyph unicode="&#x427;" horiz-adv-x="1236" d="M123 915v580h176v-481q0 -178 68 -260t208 -82q68 0 149.5 35.5t136 83t54.5 81.5v623h177v-1495h-177v682q-57 -85 -161 -129.5t-215 -44.5q-193 0 -304.5 106.5t-111.5 300.5z" />
<glyph unicode="&#x428;" horiz-adv-x="1669" d="M147 0v1495h177v-1339h421v1339h179v-1339h424v1339h176v-1495h-1377z" />
<glyph unicode="&#x429;" horiz-adv-x="1734" d="M147 0v1495h177v-1339h424v1339h176v-1339h424v1339h178v-1339h112v-420h-176v264h-1315z" />
<glyph unicode="&#x42a;" horiz-adv-x="1423" d="M35 1341v154h563v-645h209q263 0 402 -104.5t139 -317.5q0 -214 -139.5 -321t-401.5 -107h-387v1341h-385zM598 156h229q355 0 355 274q0 127 -86 196.5t-269 69.5h-229v-540z" />
<glyph unicode="&#x42b;" horiz-adv-x="1581" d="M147 0v1495h177v-645h137q261 0 412 -108.5t151 -307.5q0 -202 -141.5 -318t-415.5 -116h-320zM324 156h163q371 0 371 274q0 266 -379 266h-155v-540zM1260 0v1495h176v-1495h-176z" />
<glyph unicode="&#x42c;" horiz-adv-x="1142" d="M147 0v1495h177v-645h137q261 0 412 -108.5t151 -307.5q0 -202 -141.5 -318t-415.5 -116h-320zM324 156h163q371 0 371 274q0 266 -379 266h-155v-540z" />
<glyph unicode="&#x42d;" horiz-adv-x="1323" d="M72 113l63 135q68 -51 168 -85t209 -34q116 0 210.5 42t157.5 115.5t101 169t49 208.5h-688v153h690q-6 91 -26.5 170.5t-62.5 151t-101.5 122.5t-146.5 81t-195 30q-106 0 -202 -34.5t-163 -88.5l-57 146q149 131 444 131q136 0 251 -39t197.5 -109t140.5 -166.5 t86 -211t28 -242.5q0 -167 -46 -308.5t-133 -247.5t-222 -165.5t-304 -59.5q-283 0 -448 136z" />
<glyph unicode="&#x42e;" horiz-adv-x="2041" d="M147 0v1495h177v-657h315q26 312 192.5 500t448.5 188q154 0 280 -60t209 -165.5t128 -249t45 -310.5q0 -158 -44 -296.5t-125 -243t-206 -164.5t-279 -60q-144 0 -263.5 55.5t-200 152.5t-128.5 225t-59 276h-313v-686h-177zM825 745q0 -99 18.5 -189.5t56.5 -168.5 t92.5 -135t131 -90t166.5 -33q113 0 202 49.5t145 135t85 196.5t29 238q0 97 -18 187t-56 169.5t-92.5 139t-132.5 94t-170 34.5q-111 0 -200 -51.5t-144 -139.5t-84 -199.5t-29 -236.5z" />
<glyph unicode="&#x42f;" horiz-adv-x="1304" d="M39 0q36 76 120.5 246.5t150.5 303.5l67 132q-130 48 -202.5 148.5t-72.5 242.5q0 422 570 422h485v-1495h-176v639h-184q-86 0 -242 8l-313 -647h-203zM272 1071q0 -67 17 -115.5t57 -86.5t111 -57t174 -19h350v548h-350q-187 0 -273 -67.5t-86 -202.5z" />
<glyph unicode="&#x430;" horiz-adv-x="1026" d="M86 274q0 191 171 276q101 50 325 83q20 4 61 9l1 1h1h2l111 12v125q0 102 -52.5 152.5t-164.5 50.5q-89 0 -181 -20.5t-161 -53.5l-47 131q67 36 170.5 60t214.5 24q86 0 153 -15.5t121.5 -50.5t83.5 -98.5t29 -152.5v-807h-138l-24 121q-129 -146 -342 -146 q-144 0 -239 76.5t-95 222.5zM254 281q0 -88 49.5 -131.5t132.5 -43.5q81 0 175.5 45.5t146.5 116.5v271q-99 -15 -101 -15q-237 -31 -320 -80t-83 -163zM932 10z" />
<glyph unicode="&#x431;" horiz-adv-x="1013" d="M115 0v1098h729v-142h-561v-241h282q97 0 173 -28.5t122.5 -77.5t70 -110t23.5 -130q0 -70 -23.5 -134t-69.5 -117.5t-122.5 -85.5t-173.5 -32h-450zM283 133h301q92 0 150.5 77.5t58.5 160.5q0 80 -57.5 144.5t-151.5 64.5h-301v-447z" />
<glyph unicode="&#x432;" horiz-adv-x="1032" d="M115 0v1098h452q93 0 165.5 -24t115.5 -65.5t64.5 -92t21.5 -107.5q0 -71 -37 -135t-109 -99q85 -36 131.5 -108.5t49.5 -151.5q0 -134 -103 -224.5t-299 -90.5h-452zM283 133h292q109 0 170.5 52.5t61.5 140.5q-3 69 -65.5 121.5t-166.5 52.5h-292v-367zM283 637h292 q94 0 146.5 48t52.5 112q0 71 -51.5 115t-147.5 44h-292v-319z" />
<glyph unicode="&#x433;" horiz-adv-x="665" d="M115 0v1098h534v-142h-366v-956h-168z" />
<glyph unicode="&#x434;" horiz-adv-x="1103" d="M10 135h96q95 113 115 447l33 516h694v-965h88v-401h-164v268h-704v-268h-158v403zM295 133h485v823h-370l-13 -321q-50 -297 -102 -502z" />
<glyph unicode="&#x435;" horiz-adv-x="1087" d="M78 551q0 -265 135 -420.5t369 -155.5q254 0 405 131l-51 123q-162 -110 -348 -110q-148 0 -243 108.5t-95 290.5h751q0 9 1.5 38.5t1.5 37.5q0 243 -119.5 386.5t-323.5 143.5q-215 -6 -349 -166t-134 -407zM256 635q13 161 96.5 256.5t208.5 95.5q127 0 204 -91 t77 -261h-586zM977 10z" />
<glyph unicode="&#x436;" horiz-adv-x="1505" d="M16 0l502 561l-491 537h198l447 -504v504h164v-504l444 504h201l-494 -537l504 -561h-205l-450 510v-510h-164v510l-453 -510h-203z" />
<glyph unicode="&#x437;" horiz-adv-x="954" d="M70 86q9 22 28 56t29 59q50 -42 132.5 -64t176.5 -22q130 0 200.5 56.5t70.5 145.5q0 74 -60 129.5t-170 55.5h-192v131h192q95 0 145 53t50 121q0 81 -61 129.5t-187 48.5q-85 0 -172.5 -28.5t-124.5 -65.5q-43 88 -57 123q107 110 356 110q108 0 189.5 -25.5 t128.5 -69.5t69.5 -97t22.5 -113q0 -179 -168 -246q194 -55 202 -262q0 -70 -25.5 -129t-77.5 -106t-139.5 -74t-203.5 -27q-105 0 -202 27.5t-152 83.5z" />
<glyph unicode="&#x438;" horiz-adv-x="1116" d="M115 0v1098h168v-838l551 735v103h167v-1098h-167v745l-562 -745h-157z" />
<glyph unicode="&#x439;" horiz-adv-x="1116" d="M115 0v1098h168v-838l551 735v103h167v-1098h-167v745l-562 -745h-157zM307 1483h117q0 -69 37 -105.5t96 -36.5t97 36.5t38 105.5h119q0 -122 -76 -190t-178 -68q-100 0 -175 68t-75 190zM559 1024z" />
<glyph unicode="&#x43a;" horiz-adv-x="995" d="M115 0v1098h168v-494l202 230q20 23 52.5 60.5t47 54t39 44t37.5 38.5t34.5 28t37 23.5t37 14.5t43 10.5t47.5 2.5q12 0 22.5 -1.5t26.5 -5t29 -5.5v-152q-67 10 -74 10q-42 0 -86 -38t-121.5 -130t-132.5 -147l-100 -98l565 -543h-225l-481 473v-473h-168z" />
<glyph unicode="&#x43b;" horiz-adv-x="1171" d="M14 127h47q27 0 46.5 2.5t34.5 11t25 16.5t17 28.5t10.5 36.5t5.5 50.5t2.5 61t0.5 76.5v688h854v-1098h-168v956h-518v-536q0 -75 -1 -114.5t-5 -92.5t-12 -78.5t-23 -59t-37 -47.5t-55 -29t-76 -19.5t-101 -4.5h-36z" />
<glyph unicode="&#x43c;" horiz-adv-x="1177" d="M115 0v1098h147l326 -514l327 514h148v-1098h-168v811l-248 -426h-106l-258 426v-811h-168z" />
<glyph unicode="&#x43d;" horiz-adv-x="1116" d="M115 0v1098h168v-445h551v445h167v-1098h-167v518h-551v-518h-168z" />
<glyph unicode="&#x43e;" horiz-adv-x="1181" d="M78 547q0 118 35 222.5t100 183.5t164.5 125t220.5 46q123 0 220 -45.5t158.5 -124.5t93.5 -182t32 -223q0 -115 -33.5 -218t-96 -182.5t-160.5 -126.5t-218 -47q-121 0 -220 45t-163 123t-98.5 181.5t-34.5 222.5zM250 545q0 -85 21 -161t62.5 -137.5t109.5 -97.5 t155 -36q86 0 151.5 36t103.5 98t56.5 137.5t18.5 162.5q0 91 -18 167t-55.5 138.5t-104 97.5t-156.5 35q-85 0 -152.5 -37t-108.5 -99.5t-62 -140t-21 -163.5zM590 1098z" />
<glyph unicode="&#x43f;" horiz-adv-x="1193" d="M152 0v1098h886v-1098h-168v956h-551v-956h-167z" />
<glyph unicode="&#x440;" horiz-adv-x="1167" d="M123 -459v1557h158l10 -148q129 174 340 174q95 0 172 -31t130 -84.5t88.5 -128t52 -160.5t16.5 -183q0 -150 -54 -277t-160 -206t-245 -79q-108 0 -196.5 46t-143.5 139v-596zM289 549q0 -92 17.5 -167.5t53.5 -135.5t98.5 -93.5t145.5 -33.5q82 0 145 38.5t98.5 102.5 t53 137t17.5 152t-17.5 152.5t-53 137.5t-98.5 103t-145 39q-83 0 -145.5 -33.5t-98.5 -94t-53.5 -136.5t-17.5 -168z" />
<glyph unicode="&#x441;" horiz-adv-x="960" d="M78 549q0 -92 21.5 -177t66 -157t106.5 -125.5t148 -84t186 -30.5q85 0 165 26t132 75l-41 119q-116 -82 -248 -82q-163 0 -264.5 121t-101.5 311t101.5 315t252.5 125q142 0 258 -76l43 119q-46 45 -125.5 70.5t-173.5 25.5q-119 0 -219.5 -47t-166.5 -127 t-102.5 -183.5t-37.5 -217.5zM473 0z" />
<glyph unicode="&#x442;" horiz-adv-x="845" d="M43 956v142h762v-142h-293v-956h-168v956h-301z" />
<glyph unicode="&#x443;" horiz-adv-x="1093" d="M43 1098h186l322 -895l305 895h182l-389 -1075q-13 -36 -35 -100q-27 -77 -40.5 -110.5t-39 -82t-51.5 -67t-69 -40t-100 -27.5t-138 -6h-57l-27 164h74q77 0 116.5 6t70.5 39t44.5 67.5t43.5 127.5q3 8 4 12.5t3.5 11.5t4.5 13z" />
<glyph unicode="&#x444;" horiz-adv-x="1406" d="M86 557q0 219 109 365.5t284 146.5q61 0 142 -31v275h167v-275q81 31 140 31q116 0 207 -68t139.5 -184.5t48.5 -259.5q0 -142 -49.5 -261.5t-140.5 -191t-205 -71.5q-77 0 -140 24v-252h-167v252q-63 -24 -144 -24q-114 0 -204 71.5t-138.5 191t-48.5 261.5zM260 555 q0 -100 25.5 -187.5t77.5 -143.5t120 -56q79 0 138 29v708q-59 29 -142 29q-101 0 -160 -110.5t-59 -268.5zM788 199q58 -31 136 -31q101 0 163 115.5t62 271.5q0 101 -25 186.5t-76.5 139t-119.5 53.5q-73 0 -140 -33v-702z" />
<glyph unicode="&#x445;" horiz-adv-x="1028" d="M25 0l401 555l-391 543h192l297 -416l299 416h195l-393 -545l393 -553h-182l-310 438l-309 -438h-192z" />
<glyph unicode="&#x446;" horiz-adv-x="1105" d="M127 0v1098h170v-965h491v965h168v-963h101v-403h-133l-11 268h-786z" />
<glyph unicode="&#x447;" horiz-adv-x="1028" d="M74 844v254h168v-236q0 -176 58.5 -249.5t186.5 -73.5q90 0 163 56t98 159v344h167v-1098h-167v549q-35 -72 -114.5 -113t-176.5 -41q-187 0 -285 119t-98 330z" />
<glyph unicode="&#x448;" horiz-adv-x="1320" d="M115 0v1098h168v-955h295v955h167v-955h293v955h168v-1098h-1091z" />
<glyph unicode="&#x449;" horiz-adv-x="1370" d="M115 0v1098h168v-965h295v965h167v-965h293v965h168v-965h101v-371h-138v238h-1054z" />
<glyph unicode="&#x44a;" horiz-adv-x="1150" d="M27 956v142h401v-443h291q96 0 171 -26t120 -71t67.5 -101t22.5 -119q0 -66 -22 -125t-65.5 -107.5t-117.5 -77t-170 -28.5h-465v956h-233zM428 133h317q92 0 142.5 63.5t50.5 141.5q0 70 -53 126t-146 56h-311v-387z" />
<glyph unicode="&#x44b;" horiz-adv-x="1320" d="M115 0v1098h168v-400h225q97 0 171.5 -27.5t119 -75.5t66.5 -107.5t22 -129.5q0 -56 -13 -106.5t-41.5 -97t-71 -80.5t-106 -54t-141.5 -20h-399zM283 133h256q90 0 138 71t48 156q0 81 -50.5 141t-142.5 60h-249v-428zM1038 0v1098h168v-1098h-168z" />
<glyph unicode="&#x44c;" horiz-adv-x="950" d="M115 0v1098h168v-400h225q97 0 171.5 -27.5t119 -75.5t66.5 -107.5t22 -129.5q0 -56 -13 -106.5t-41.5 -97t-71 -80.5t-106 -54t-141.5 -20h-399zM283 133h256q90 0 138 71t48 156q0 81 -50.5 141t-142.5 60h-249v-428z" />
<glyph unicode="&#x44d;" horiz-adv-x="1001" d="M53 1024q56 49 143 74.5t181 25.5q133 0 237.5 -47t169 -128t98 -184t33.5 -220q0 -90 -21 -173.5t-65 -155.5t-106 -125.5t-150 -84.5t-192 -31q-103 0 -189 25t-137 70l45 125q137 -82 271 -82q155 0 251.5 98.5t114.5 265.5h-463v141h463q-18 172 -110.5 269.5 t-257.5 97.5q-136 0 -269 -84z" />
<glyph unicode="&#x44e;" horiz-adv-x="1466" d="M115 0v1098h168v-480h176q8 109 39 199t86.5 159.5t142.5 108.5t199 39q98 0 176 -30t129.5 -81.5t85.5 -125t48.5 -157t14.5 -181.5q0 -93 -15.5 -176t-50.5 -156.5t-87 -126.5t-129.5 -84t-173.5 -31q-112 0 -199 38t-142.5 107t-86 158.5t-37.5 198.5h-176v-477h-168z M629 545q0 -87 16 -161.5t49.5 -136.5t93 -98t138.5 -36q78 0 134.5 35.5t87 98.5t44.5 137t14 163q0 74 -7.5 135.5t-26.5 119t-50 97t-81.5 63t-116.5 23.5q-78 0 -136.5 -37t-92 -100t-50 -139.5t-16.5 -163.5z" />
<glyph unicode="&#x44f;" horiz-adv-x="1044" d="M74 0l227 459q-111 34 -169 117.5t-58 185.5q0 66 22.5 124.5t67 107t119.5 76.5t172 28h475v-1098h-168v438h-287l-201 -438h-200zM238 762q0 -69 56 -125.5t150 -56.5h318v376h-318q-94 0 -150 -60t-56 -134z" />
<glyph unicode="&#x450;" horiz-adv-x="1083" d="M78 551q0 -265 135 -420.5t369 -155.5q254 0 405 131l-51 123q-162 -110 -348 -110q-148 0 -243 108.5t-95 290.5h751q0 9 1.5 38.5t1.5 37.5q0 243 -119.5 386.5t-323.5 143.5q-215 -6 -349 -166t-134 -407zM256 635q13 161 96.5 256.5t208.5 95.5q127 0 204 -91 t77 -261h-586zM332 1614h250l184 -387h-113zM549 1073z" />
<glyph unicode="&#x451;" horiz-adv-x="1083" d="M78 551q0 -265 135 -420.5t369 -155.5q254 0 405 131l-51 123q-162 -110 -348 -110q-148 0 -243 108.5t-95 290.5h751q0 9 1.5 38.5t1.5 37.5q0 243 -119.5 386.5t-323.5 143.5q-215 -6 -349 -166t-134 -407zM256 635q13 161 96.5 256.5t208.5 95.5q127 0 204 -91 t77 -261h-586zM276 1225v213h154v-213h-154zM549 1069zM666 1225v213h155v-213h-155z" />
<glyph unicode="&#x452;" horiz-adv-x="1112" d="M20 1098v116h95v295h168v-295h415v-116h-415v-385q143 180 354 180q371 0 371 -449v-286q0 -73 -2 -121t-9.5 -99t-21 -82t-36.5 -60.5t-57.5 -45t-82 -24.5t-111.5 -9h-72l-12 142h43q46 0 74.5 3t51.5 13.5t35 25.5t20 45t10 65.5t2 92.5v265q0 80 -5 134.5t-18.5 102 t-38 75t-63.5 43t-94 15.5q-119 0 -217.5 -78.5t-120.5 -164.5v-496h-168v1098h-95z" />
<glyph unicode="&#x453;" horiz-adv-x="665" d="M115 0v1098h534v-142h-366v-956h-168zM162 1225l186 389h254l-326 -389h-114zM383 1073z" />
<glyph unicode="&#x454;" horiz-adv-x="1001" d="M53 545q0 117 33.5 220t98.5 184t169.5 128t237.5 47q94 0 180.5 -25.5t142.5 -74.5l-47 -123q-133 84 -268 84q-165 0 -258 -97.5t-111 -269.5h463v-141h-463q17 -167 114.5 -265.5t252.5 -98.5q133 0 270 82l45 -125q-52 -45 -136 -70t-187 -25q-104 0 -192 31 t-151 84.5t-107 125.5t-65.5 155.5t-21.5 173.5z" />
<glyph unicode="&#x455;" horiz-adv-x="907" d="M100 815q2 -108 66 -184t219 -119l145 -41q166 -47 166 -170v-10q-7 -85 -63.5 -130.5t-151.5 -45.5h-16q-98 0 -180 30t-131 62l-43 -129q55 -41 159.5 -72t221.5 -31q160 0 259 84t103 236v4q0 133 -69 210.5t-207 113.5l-152 41q-85 22 -121.5 59.5t-36.5 91.5 q0 83 59 129.5t152 46.5q142 0 281 -59l39 121q-139 71 -332 71q-89 -1 -160.5 -27.5t-115.5 -70.5t-67.5 -98t-23.5 -113zM467 0z" />
<glyph unicode="&#x456;" horiz-adv-x="487" d="M160 0v1098h170v-1098h-170zM160 1292v199h170v-199h-170z" />
<glyph unicode="&#x457;" horiz-adv-x="428" d="M-57 1253v213h153v-213h-153zM135 0v1098h168v-1098h-168zM215 1098zM332 1253v213h155v-213h-155z" />
<glyph unicode="&#x458;" horiz-adv-x="444" d="M-78 -350h53q30 0 54 2.5t43 6.5t32.5 13.5t23.5 18t16 25t10 30t5.5 38t2 43.5t0.5 52v1219h168v-1237q0 -105 -13.5 -170.5t-50.5 -111t-101 -63.5t-167 -18h-53zM162 1298v197h168v-197h-168z" />
<glyph unicode="&#x459;" horiz-adv-x="950" d="M127 127h47q98 0 119.5 51t21.5 232v688h807v-400h211q97 0 171.5 -27.5t119 -75.5t66.5 -107.5t22 -129.5t-21 -132t-63.5 -114t-116 -82t-170.5 -30h-387v956h-471v-536q0 -86 -1 -129t-6.5 -101t-18 -84t-34 -58t-55 -43.5t-81 -20.5t-113.5 -9h-37zM1122 133h242 q90 0 138 71t48 156q0 81 -50 141t-142 60h-236v-428z" />
<glyph unicode="&#x45a;" horiz-adv-x="1619" d="M115 0v1098h168v-445h483v445h168v-400h207q97 0 171.5 -27.5t119 -75.5t66.5 -107.5t22 -129.5q0 -56 -13 -106.5t-41.5 -97t-71 -80.5t-106 -54t-141.5 -20h-381v518h-483v-518h-168zM934 133h237q90 0 138.5 71t48.5 156q0 80 -51.5 140.5t-143.5 60.5h-229v-428z" />
<glyph unicode="&#x45b;" horiz-adv-x="1112" d="M20 1100v114h95v295h168v-295h415v-114h-415v-387q143 180 354 180q371 0 371 -449v-444h-168v369q0 80 -5 134.5t-18.5 102t-38 75t-63.5 43t-94 15.5q-119 0 -217.5 -78.5t-120.5 -164.5v-496h-168v1100h-95z" />
<glyph unicode="&#x45c;" horiz-adv-x="995" d="M115 0v1098h168v-494l202 230q20 23 52.5 60.5t47 54t39 44t37.5 38.5t34.5 28t37 23.5t37 14.5t43 10.5t47.5 2.5q12 0 22.5 -1.5t26.5 -5t29 -5.5v-152q-67 10 -74 10q-42 0 -86 -38t-121.5 -130t-132.5 -147l-100 -98l565 -543h-225l-481 473v-473h-168zM494 1225 l186 389h254l-326 -389h-114zM715 1073z" />
<glyph unicode="&#x45e;" horiz-adv-x="1093" d="M43 1098h186l322 -895l305 895h182l-389 -1075q-13 -36 -35 -100q-27 -77 -40.5 -110.5t-39 -82t-51.5 -67t-69 -40t-100 -27.5t-138 -6h-57l-27 164h74q77 0 116.5 6t70.5 39t44.5 67.5t43.5 127.5q3 8 4 12.5t3.5 11.5t4.5 13zM289 1483h117q0 -69 37 -105.5t96 -36.5 t97 36.5t38 105.5h119q0 -122 -76 -190t-178 -68q-100 0 -175 68t-75 190zM541 1024z" />
<glyph unicode="&#x45f;" horiz-adv-x="1105" d="M115 0v1098h168v-965h505v965h168v-1098h-319l-8 -279h-135l-7 279h-372z" />
<glyph unicode="&#x2000;" horiz-adv-x="1007" />
<glyph unicode="&#x2001;" horiz-adv-x="2015" />
<glyph unicode="&#x2002;" horiz-adv-x="1007" />
<glyph unicode="&#x2003;" horiz-adv-x="2015" />
<glyph unicode="&#x2004;" horiz-adv-x="671" />
<glyph unicode="&#x2005;" horiz-adv-x="503" />
<glyph unicode="&#x2006;" horiz-adv-x="335" />
<glyph unicode="&#x2007;" horiz-adv-x="335" />
<glyph unicode="&#x2008;" horiz-adv-x="251" />
<glyph unicode="&#x2009;" horiz-adv-x="403" />
<glyph unicode="&#x200a;" horiz-adv-x="111" />
<glyph unicode="&#x2010;" horiz-adv-x="684" d="M88 520v144h510v-144h-510z" />
<glyph unicode="&#x2011;" horiz-adv-x="684" d="M88 520v144h510v-144h-510z" />
<glyph unicode="&#x2012;" horiz-adv-x="684" d="M88 520v144h510v-144h-510z" />
<glyph unicode="&#x2013;" horiz-adv-x="1316" d="M139 526v150h1047v-150h-1047z" />
<glyph unicode="&#x2014;" horiz-adv-x="2426" d="M139 526v150h2157v-150h-2157z" />
<glyph unicode="&#x2018;" horiz-adv-x="509" d="M129 1102l135 473h119l-92 -473h-162z" />
<glyph unicode="&#x2019;" horiz-adv-x="503" d="M133 1102l92 473h158l-133 -473h-117z" />
<glyph unicode="&#x201a;" horiz-adv-x="503" d="M127 -256l90 471h162l-133 -471h-119z" />
<glyph unicode="&#x201c;" horiz-adv-x="817" d="M129 1102l133 473h121l-94 -473h-160zM438 1102l135 473h117l-90 -473h-162z" />
<glyph unicode="&#x201d;" horiz-adv-x="794" d="M133 1102l92 473h160l-135 -473h-117zM420 1102l92 473h162l-137 -473h-117z" />
<glyph unicode="&#x201e;" horiz-adv-x="817" d="M127 -256l88 471h162l-133 -471h-117zM440 -256l92 471h162l-135 -471h-119z" />
<glyph unicode="&#x2026;" horiz-adv-x="1480" d="M127 121q0 -54 35.5 -93.5t97.5 -39.5t97.5 39.5t35.5 93.5q0 53 -35.5 92t-97.5 39t-97.5 -39t-35.5 -92zM621 121q0 -54 35.5 -93.5t97.5 -39.5t97.5 39.5t35.5 93.5q0 53 -35.5 92t-97.5 39t-97.5 -39t-35.5 -92zM1114 121q0 -54 35.5 -93.5t97.5 -39.5t97.5 39.5 t35.5 93.5q0 53 -35.5 92t-97.5 39t-97.5 -39t-35.5 -92z" />
<glyph unicode="&#x202f;" horiz-adv-x="403" />
<glyph unicode="&#x2039;" horiz-adv-x="618" d="M121 584l239 397h142l-234 -397l228 -402h-140z" />
<glyph unicode="&#x203a;" horiz-adv-x="616" d="M125 182l229 404l-225 395h139l238 -395l-242 -404h-139z" />
<glyph unicode="&#x205f;" horiz-adv-x="503" />
<glyph unicode="&#x20ac;" horiz-adv-x="1193" d="M84 580l16 102h93q0 8 -1.5 24.5t-1.5 24.5q0 23 3.5 65.5t3.5 49.5h-113l18 110h111q19 127 63.5 229.5t113 179t166.5 118t218 41.5q185 0 293 -94l-2 -181q-109 119 -268 119q-164 0 -263 -110t-131 -302h558l-17 -110h-559q-2 -21 -2.5 -62.5t-0.5 -71.5t-1 -30h549 l-10 -102h-523q11 -92 39 -169.5t73.5 -140.5t114 -99t154.5 -36q151 0 289 109l-2 -174q-130 -93 -305 -93q-101 0 -187 35t-146.5 92.5t-107 137t-74 163t-40.5 175.5h-121z" />
<glyph unicode="&#x2122;" horiz-adv-x="1810" d="M90 1395v100h637v-100h-264v-787h-115v787h-258zM850 608v887h156l268 -672l280 672h150v-887h-115v742l-278 -670h-86l-264 670v-742h-111z" />
<glyph unicode="&#x25fc;" horiz-adv-x="1095" d="M0 0v1096h1096v-1096h-1096z" />
</font>
</defs>
</svg>
